<?xml version="1.0" encoding="UTF-8"?>
<svg version="1.1" xmlns="http://www.w3.org/2000/svg" width="1200" height="1200">
<path d="M0 0 C1.04160278 0.00337372 2.08320557 0.00674744 3.15637207 0.01022339 C65.08854277 0.29938841 125.1886767 21.27951816 173.375 60.4375 C174.16124756 61.06930176 174.16124756 61.06930176 174.96337891 61.71386719 C190.08163369 73.9452878 204.68872928 87.86321145 216.375 103.4375 C217.30873327 104.63241978 218.24372803 105.82635441 219.1796875 107.01953125 C244.19449075 139.23373652 261.09593311 177.06658524 270.0625 216.75 C270.25303955 217.57709473 270.4435791 218.40418945 270.63989258 219.25634766 C274.59036519 237.66889527 275.90315267 256.08750501 275.75 274.875 C275.74302094 276.41347595 275.74302094 276.41347595 275.73590088 277.98303223 C275.65622335 292.99334551 275.27145408 307.6663649 272.375 322.4375 C272.17632324 323.49130859 271.97764648 324.54511719 271.77294922 325.63085938 C265.20780343 359.72044034 251.91442474 407.89807526 226.375 433.4375 C227.00183251 433.78155341 227.62866501 434.12560682 228.27449244 434.48008609 C234.53217233 438.05210155 239.51686008 442.00414114 244.56721497 447.11505127 C245.32768857 447.86857935 246.08816218 448.62210742 246.87168044 449.39846969 C249.39510167 451.90372311 251.90413319 454.42288903 254.41333008 456.94238281 C256.22851165 458.75050091 258.04453342 460.55777586 259.86132812 462.36427307 C264.26776252 466.75058247 268.66475222 471.14616273 273.05705116 475.54662165 C276.62891975 479.12480833 280.20451438 482.69923131 283.78275108 486.2710495 C284.2933944 486.78079116 284.80403772 487.29053282 285.33015507 487.8157212 C286.36775048 488.85146528 287.40535151 489.88720375 288.44295808 490.92293665 C298.15532711 500.61875626 307.85505181 510.32714735 317.55070963 520.03967378 C326.4098904 528.91355466 335.28365705 537.77268026 344.16459159 546.62478557 C353.29937102 555.73013373 362.42485802 564.84469624 371.54016417 573.96954036 C372.5722047 575.00260337 373.60425917 576.03565245 374.63632774 577.06868744 C375.14403471 577.57687079 375.65174167 578.08505414 376.17483369 578.60863699 C379.74204126 582.17800345 383.31517637 585.74136797 386.89075661 589.30234528 C391.70834192 594.10052773 396.51253248 598.91174064 401.30812836 603.73191643 C403.06742653 605.49621756 404.83097381 607.25629363 406.59910393 609.01174355 C409.0170806 611.41374999 411.41904014 613.83074226 413.81770325 616.25201416 C414.86536329 617.28192061 414.86536329 617.28192061 415.93418819 618.33263326 C424.31618742 626.87526019 427.66929169 635.78651775 427.69189453 647.61157227 C427.41626885 663.793522 419.61972528 676.32014216 408.375 687.4375 C396.24000965 698.64960273 383.06750633 703.13626769 366.76171875 702.73828125 C349.17236188 701.83215157 336.50837897 683.72954953 324.88745117 672.12695312 C323.13074552 670.37652208 321.37385367 668.62627789 319.61679077 666.87620544 C314.37493702 661.65345429 309.13728747 656.42650464 303.90051624 651.1986587 C301.924201 649.22586111 299.94757236 647.25337768 297.97092786 645.28090999 C289.24393118 636.57235109 280.51827667 627.86244999 271.79664135 619.14852142 C269.67050813 617.02429764 267.54436942 614.90007936 265.41821289 612.77587891 C264.88985941 612.24800917 264.36150594 611.72013943 263.81714175 611.17627364 C255.24368696 602.61113282 246.66173745 594.05455619 238.07624086 585.50148755 C229.24187153 576.70021286 220.41507271 567.89140302 211.5956381 559.07516241 C206.65142235 554.13310763 201.70399293 549.19436839 196.74806786 544.26405334 C192.09071299 539.63071313 187.44368899 534.98719231 182.80346298 530.33668709 C181.10136052 528.6340891 179.39584316 526.934897 177.6866436 525.23942375 C175.34987608 522.92037441 173.02585011 520.58924184 170.70451355 518.25476074 C170.02941921 517.59063565 169.35432487 516.92651055 168.65877312 516.24226046 C164.2243335 511.74716329 161.16780784 507.09587225 158.375 501.4375 C157.54742188 502.02015625 156.71984375 502.6028125 155.8671875 503.203125 C123.13672799 525.84321529 86.41495603 540.17425237 47.375 547.4375 C46.45944336 547.61539063 45.54388672 547.79328125 44.60058594 547.9765625 C15.75313857 553.35544281 -17.80640609 553.00002121 -46.625 547.4375 C-47.57197754 547.26057617 -48.51895508 547.08365234 -49.49462891 546.90136719 C-94.6331763 538.28583432 -136.90076614 519.44169602 -172.625 490.4375 C-173.20733398 489.97085937 -173.78966797 489.50421875 -174.38964844 489.0234375 C-189.46433086 476.87343439 -203.9896233 462.93653233 -215.625 447.4375 C-216.53519224 446.27765115 -217.44675582 445.1188777 -218.359375 443.9609375 C-244.76230865 410.0812204 -261.79747203 370.64155304 -270.375 328.6875 C-270.57383789 327.7188501 -270.77267578 326.7502002 -270.97753906 325.75219727 C-274.02285957 310.11162965 -274.97457651 294.81979269 -274.94067383 278.91064453 C-274.9375253 275.8371997 -274.96103225 272.76473232 -274.98632812 269.69140625 C-275.0436685 251.83179683 -273.32781114 234.17967618 -269.3125 216.75 C-268.99285278 215.33533447 -268.99285278 215.33533447 -268.66674805 213.89208984 C-259.17788983 172.9351144 -241.00865028 135.14300588 -214.625 102.4375 C-214.15690918 101.85226562 -213.68881836 101.26703125 -213.20654297 100.6640625 C-201.05811403 85.59462867 -187.12281277 71.06638662 -171.625 59.4375 C-170.43008022 58.50376673 -169.23614559 57.56877197 -168.04296875 56.6328125 C-135.82876348 31.61800925 -97.99591476 14.71656689 -58.3125 5.75 C-57.07185791 5.46419067 -57.07185791 5.46419067 -55.80615234 5.17260742 C-37.34501325 1.21170935 -18.8385968 -0.11959389 0 0 Z M-83.625 122.4375 C-84.22650879 122.75299805 -84.82801758 123.06849609 -85.44775391 123.39355469 C-99.88343778 130.99128304 -111.86005959 141.25550708 -123.625 152.4375 C-124.25664062 153.01628906 -124.88828125 153.59507812 -125.5390625 154.19140625 C-153.46508319 180.59539264 -172.20915357 223.06890053 -173.78613281 261.34887695 C-173.80561771 262.70777745 -173.81940481 264.06676904 -173.828125 265.42578125 C-173.83518463 266.16224884 -173.84224426 266.89871643 -173.84951782 267.65750122 C-174.11126386 290.22049867 -174.11126386 290.22049867 -170.625 312.4375 C-170.33496094 313.65735596 -170.33496094 313.65735596 -170.0390625 314.90185547 C-158.79557415 360.99495238 -130.22970388 400.07968047 -89.93310547 425.03051758 C-49.34250306 449.56899942 -1.85937483 455.88121245 43.97851562 444.80859375 C89.32878541 433.14809328 127.39107049 403.19826728 151.4375 363.375 C160.7502659 347.44847775 167.11555236 330.35202685 171.375 312.4375 C171.55289062 311.71578613 171.73078125 310.99407227 171.9140625 310.25048828 C177.12793592 288.10704373 176.81117356 260.49241067 171.375 238.4375 C171.08496094 237.21764404 171.08496094 237.21764404 170.7890625 235.97314453 C159.23734095 188.6164342 129.61276072 149.45822352 88.16015625 124.2265625 C35.32683364 92.94855694 -30.08589845 93.65725541 -83.625 122.4375 Z " fill="#FFFFFF" transform="translate(524.625,249.5625)"/>
</svg>
